<svg width="100" height="100" viewBox="0 0 100 100" fill="none" xmlns="http://www.w3.org/2000/svg">
<path d="M13.1075 44.7422L15.883 47.8378L15.883 47.8378L13.1075 44.7422ZM86.6761 44.7422L83.9006 47.8378L83.9006 47.8378L86.6761 44.7422ZM51.2795 13.0058L48.504 16.1014L48.504 16.1014L51.2795 13.0058ZM48.504 13.0058L45.7285 9.91019L45.7285 9.91019L48.504 13.0058ZM41.5639 87.3621H37.4062V91.5197H41.5639V87.3621ZM58.2196 87.3621V91.5197H62.3772V87.3621H58.2196ZM16.574 46.29C16.574 46.8807 16.3228 47.4435 15.883 47.8378L10.332 41.6466C9.01258 42.8296 8.25872 44.5179 8.25872 46.29H16.574ZM16.574 85.2833V46.29H8.25872V85.2833H16.574ZM14.4952 83.2045C15.6433 83.2045 16.574 84.1352 16.574 85.2833H8.25872C8.25872 88.7277 11.0509 91.5198 14.4952 91.5198V83.2045ZM85.2883 83.2045H14.4952V91.5198H85.2883V83.2045ZM83.2095 85.2833C83.2095 84.1352 84.1402 83.2045 85.2883 83.2045V91.5198C88.7326 91.5198 91.5248 88.7277 91.5248 85.2833H83.2095ZM83.2095 46.29V85.2833H91.5248V46.29H83.2095ZM83.9006 47.8378C83.4608 47.4435 83.2095 46.8807 83.2095 46.29H91.5248C91.5248 44.5179 90.771 42.8296 89.4516 41.6466L83.9006 47.8378ZM48.504 16.1014L83.9006 47.8378L89.4516 41.6466L54.055 9.9102L48.504 16.1014ZM51.2795 16.1014C50.4898 16.8094 49.2937 16.8094 48.504 16.1014L54.055 9.9102C51.6859 7.78607 48.0976 7.78607 45.7285 9.91019L51.2795 16.1014ZM15.883 47.8378L51.2795 16.1014L45.7285 9.91019L10.332 41.6466L15.883 47.8378ZM45.7215 66.5424C45.7215 64.2393 47.5886 62.3722 49.8917 62.3722V54.0569C42.9962 54.0569 37.4062 59.6469 37.4062 66.5424H45.7215ZM45.7215 87.3621V66.5424H37.4062V87.3621H45.7215ZM58.2196 83.2044H41.5639V91.5197H58.2196V83.2044ZM54.0619 66.5424V87.3621H62.3772V66.5424H54.0619ZM49.8917 62.3722C52.1949 62.3722 54.0619 64.2393 54.0619 66.5424H62.3772C62.3772 59.6469 56.7873 54.0569 49.8917 54.0569V62.3722Z" fill="black"/>
</svg>
